<svg width="101" height="61" viewBox="0 0 101 61" fill="none" xmlns="http://www.w3.org/2000/svg">
<path fill-rule="evenodd" clip-rule="evenodd" d="M14.5 39.434V21.416H26.564V24.822H18.556V28.592H25.68V31.998H18.556V39.434H14.5ZM32.622 30.412C32.622 31.296 32.7303 32.0933 32.947 32.804C33.1637 33.5147 33.4757 34.1257 33.883 34.637C34.2903 35.1483 34.7887 35.5427 35.378 35.82C35.9673 36.0973 36.6433 36.236 37.406 36.236C38.1513 36.236 38.823 36.0973 39.421 35.82C40.019 35.5427 40.5217 35.1483 40.929 34.637C41.3363 34.1257 41.6483 33.5147 41.865 32.804C42.0817 32.0933 42.19 31.296 42.19 30.412C42.19 29.528 42.0817 28.7263 41.865 28.007C41.6483 27.2877 41.3363 26.6723 40.929 26.161C40.5217 25.6497 40.019 25.2553 39.421 24.978C38.823 24.7007 38.1513 24.562 37.406 24.562C36.6433 24.562 35.9673 24.705 35.378 24.991C34.7887 25.277 34.2903 25.6757 33.883 26.187C33.4757 26.6983 33.1637 27.3137 32.947 28.033C32.7303 28.7523 32.622 29.5453 32.622 30.412ZM46.376 30.412C46.376 31.9547 46.1463 33.311 45.687 34.481C45.2277 35.651 44.5993 36.6303 43.802 37.419C43.0047 38.2077 42.0557 38.8013 40.955 39.2C39.8543 39.5987 38.6713 39.798 37.406 39.798C36.1753 39.798 35.014 39.5987 33.922 39.2C32.83 38.8013 31.8767 38.2077 31.062 37.419C30.2473 36.6303 29.606 35.651 29.138 34.481C28.67 33.311 28.436 31.9547 28.436 30.412C28.436 28.8693 28.6787 27.513 29.164 26.343C29.6493 25.173 30.3037 24.1893 31.127 23.392C31.9503 22.5947 32.9037 21.9967 33.987 21.598C35.0703 21.1993 36.21 21 37.406 21C38.6367 21 39.798 21.1993 40.89 21.598C41.982 21.9967 42.9353 22.5947 43.75 23.392C44.5647 24.1893 45.206 25.173 45.674 26.343C46.142 27.513 46.376 28.8693 46.376 30.412ZM55.034 21.208C57.738 21.208 59.8093 21.689 61.248 22.651C62.6867 23.613 63.406 25.108 63.406 27.136C63.406 28.4013 63.1157 29.4283 62.535 30.217C61.9543 31.0057 61.118 31.6253 60.026 32.076C60.39 32.5267 60.7713 33.0423 61.17 33.623C61.5687 34.2037 61.963 34.8103 62.353 35.443C62.743 36.0757 63.12 36.7343 63.484 37.419C63.848 38.1037 64.186 38.7753 64.498 39.434H59.948C59.6187 38.8447 59.285 38.2467 58.947 37.64C58.609 37.0333 58.2623 36.444 57.907 35.872C57.5517 35.3 57.2007 34.7583 56.854 34.247C56.5073 33.7357 56.1607 33.272 55.814 32.856H53.812V39.434H49.756V21.676C50.64 21.5027 51.5543 21.3813 52.499 21.312C53.4437 21.2427 54.2887 21.208 55.034 21.208ZM55.268 24.666C54.9733 24.666 54.709 24.6747 54.475 24.692C54.241 24.7093 54.02 24.7267 53.812 24.744V29.632H54.956C56.4813 29.632 57.5733 29.4413 58.232 29.06C58.8907 28.6787 59.22 28.0287 59.22 27.11C59.22 26.226 58.8863 25.5977 58.219 25.225C57.5517 24.8523 56.568 24.666 55.268 24.666ZM71.882 21.416C72.194 21.988 72.5537 22.6943 72.961 23.535C73.3683 24.3757 73.793 25.2857 74.235 26.265C74.677 27.2443 75.1147 28.2453 75.548 29.268C75.9813 30.2907 76.3887 31.2527 76.77 32.154C77.1513 31.2527 77.5587 30.2907 77.992 29.268C78.4253 28.2453 78.863 27.2443 79.305 26.265C79.747 25.2857 80.1717 24.3757 80.579 23.535C80.9863 22.6943 81.346 21.988 81.658 21.416H85.35C85.5233 22.612 85.6837 23.951 85.831 25.433C85.9783 26.915 86.1083 28.4577 86.221 30.061C86.3337 31.6643 86.4377 33.272 86.533 34.884C86.6283 36.496 86.7107 38.0127 86.78 39.434H82.828C82.776 37.6833 82.7067 35.7767 82.62 33.714C82.5333 31.6513 82.4033 29.5713 82.23 27.474C81.918 28.202 81.5713 29.008 81.19 29.892C80.8087 30.776 80.4317 31.66 80.059 32.544C79.6863 33.428 79.3267 34.273 78.98 35.079C78.6333 35.885 78.3387 36.574 78.096 37.146H75.262C75.0193 36.574 74.7247 35.885 74.378 35.079C74.0313 34.273 73.6717 33.428 73.299 32.544C72.9263 31.66 72.5493 30.776 72.168 29.892C71.7867 29.008 71.44 28.202 71.128 27.474C70.9547 29.5713 70.8247 31.6513 70.738 33.714C70.6513 35.7767 70.582 37.6833 70.53 39.434H66.578C66.6473 38.0127 66.7297 36.496 66.825 34.884C66.9203 33.272 67.0243 31.6643 67.137 30.061C67.2497 28.4577 67.3797 26.915 67.527 25.433C67.6743 23.951 67.8347 22.612 68.008 21.416H71.882Z" fill="white"/>
</svg>
