<svg width="55" height="58" viewBox="0 0 55 58" fill="none" xmlns="http://www.w3.org/2000/svg">
<path fill-rule="evenodd" clip-rule="evenodd" d="M11.8992 3.42241C15.722 3.42241 18.8211 6.52143 18.8211 10.3443C18.8211 14.1671 15.722 17.2661 11.8992 17.2661C8.07639 17.2661 4.97738 14.1671 4.97738 10.3443C4.97738 6.52143 8.07639 3.42241 11.8992 3.42241ZM21.7907 8.45654C20.9071 3.79838 16.8145 0.276123 11.8992 0.276123C6.33874 0.276123 1.83109 4.78378 1.83109 10.3443C1.83109 15.1469 5.19383 19.1642 9.69323 20.17L0.460764 29.4024C-0.153588 30.0168 -0.153588 31.0128 0.460764 31.6272C1.07511 32.2416 2.07118 32.2416 2.68553 31.6272L10.0114 24.3013V57.5387H54.0595V8.45654L21.7907 8.45654ZM21.8894 11.6028C21.3391 16.0157 17.933 19.5417 13.5789 20.2729L22.7084 29.4024C23.3227 30.0168 23.3227 31.0128 22.7084 31.6272C22.094 32.2416 21.098 32.2416 20.4836 31.6272L13.1577 24.3013V54.3924H50.9132V11.6028L21.8894 11.6028Z" fill="black"/>
</svg>
