<svg width="77" height="24" viewBox="0 0 77 24" fill="none" xmlns="http://www.w3.org/2000/svg">
<path fill-rule="evenodd" clip-rule="evenodd" d="M10.5681 5.3001C6.7453 5.3001 3.64629 8.39911 3.64629 12.2219C3.64629 16.0448 6.7453 19.1438 10.5681 19.1438C14.391 19.1438 17.49 16.0448 17.49 12.2219C17.49 8.39911 14.391 5.3001 10.5681 5.3001ZM0.5 12.2219C0.5 6.66146 5.00766 2.15381 10.5681 2.15381C16.1286 2.15381 20.6363 6.66146 20.6363 12.2219C20.6363 17.7824 16.1286 22.2901 10.5681 22.2901C5.00766 22.2901 0.5 17.7824 0.5 12.2219Z" fill="black"/>
<path d="M68.4598 20.717C73.1515 20.717 76.9548 16.9137 76.9548 12.222C76.9548 7.53038 73.1515 3.72705 68.4598 3.72705C63.7682 3.72705 59.9648 7.53038 59.9648 12.222C59.9648 16.9137 63.7682 20.717 68.4598 20.717Z" fill="black"/>
<path fill-rule="evenodd" clip-rule="evenodd" d="M49.4927 0.783487L59.5041 10.7949C60.1184 11.4093 60.1184 12.4053 59.5041 13.0197L49.4927 23.0311C48.8783 23.6455 47.8822 23.6455 47.2679 23.0311C46.6535 22.4168 46.6535 21.4207 47.2679 20.8064L54.5938 13.4804H20.6362V10.3342H54.5938L47.2679 3.00825C46.6535 2.3939 46.6535 1.39784 47.2679 0.783487C47.8822 0.169136 48.8783 0.169136 49.4927 0.783487Z" fill="black"/>
</svg>
