<svg width="83" height="60" viewBox="0 0 83 60" fill="none" xmlns="http://www.w3.org/2000/svg">
<path fill-rule="evenodd" clip-rule="evenodd" d="M10.4722 0.47834L0.460763 10.4898C-0.153588 11.1041 -0.153588 12.1002 0.460764 12.7145C1.07511 13.3289 2.07118 13.3289 2.68553 12.7145L10.0114 5.38863L10.0114 39.3462H11.8742C6.3252 39.3597 1.83108 43.8622 1.83108 49.4143C1.83108 54.9748 6.33874 59.4824 11.8992 59.4824C17.4597 59.4824 21.9673 54.9748 21.9673 49.4143C21.9673 43.8622 17.4732 39.3597 11.9243 39.3462H13.1577L13.1577 5.38863L20.4836 12.7145C21.098 13.3289 22.094 13.3289 22.7084 12.7145C23.3227 12.1002 23.3227 11.1041 22.7084 10.4898L12.697 0.47834C12.0826 -0.136009 11.0865 -0.136009 10.4722 0.47834ZM11.8992 56.3361C8.07639 56.3361 4.97737 53.2371 4.97737 49.4143C4.97737 45.5915 8.07639 42.4925 11.8992 42.4925C15.722 42.4925 18.8211 45.5915 18.8211 49.4143C18.8211 53.2371 15.722 56.3361 11.8992 56.3361ZM34.5525 49.4143C34.5525 53.2371 37.6515 56.3361 41.4743 56.3361C45.2972 56.3361 48.3962 53.2371 48.3962 49.4143C48.3962 45.5915 45.2972 42.4925 41.4743 42.4925C37.6515 42.4925 34.5525 45.5915 34.5525 49.4143ZM41.4743 59.4824C35.9139 59.4824 31.4062 54.9748 31.4062 49.4143C31.4062 43.8622 35.9003 39.3597 41.4493 39.3462H39.5866L39.5866 5.38863L32.2607 12.7145C31.6463 13.3289 30.6502 13.3289 30.0359 12.7145C29.4215 12.1002 29.4215 11.1041 30.0359 10.4898L40.0473 0.47834C40.6617 -0.136009 41.6577 -0.136009 42.2721 0.47834L52.2835 10.4898C52.8979 11.1041 52.8979 12.1002 52.2835 12.7145C51.6692 13.3289 50.6731 13.3289 50.0588 12.7145L42.7329 5.38863V39.3462H41.4994C47.0484 39.3597 51.5425 43.8622 51.5425 49.4143C51.5425 54.9748 47.0348 59.4824 41.4743 59.4824ZM64.1276 49.4143C64.1276 53.2371 67.2266 56.3361 71.0495 56.3361C74.8723 56.3361 77.9713 53.2371 77.9713 49.4143C77.9713 45.5915 74.8723 42.4925 71.0495 42.4925C67.2266 42.4925 64.1276 45.5915 64.1276 49.4143ZM71.0495 59.4824C65.489 59.4824 60.9813 54.9748 60.9813 49.4143C60.9813 43.8622 65.4755 39.3597 71.0244 39.3462H69.1617V5.38863L61.8358 12.7145C61.2214 13.3289 60.2254 13.3289 59.611 12.7145C58.9967 12.1002 58.9967 11.1041 59.611 10.4898L69.6225 0.47834C70.2368 -0.136009 71.2329 -0.136009 71.8472 0.47834L81.8587 10.4898C82.473 11.1041 82.473 12.1002 81.8587 12.7145C81.2443 13.3289 80.2482 13.3289 79.6339 12.7145L72.308 5.38863V39.3462H71.0745C76.6235 39.3597 81.1176 43.8622 81.1176 49.4143C81.1176 54.9748 76.6099 59.4824 71.0495 59.4824Z" fill="black"/>
</svg>
